<?xml version="1.0" standalone="no"?>
<!DOCTYPE svg PUBLIC "-//W3C//DTD SVG 20010904//EN"
 "http://www.w3.org/TR/2001/REC-SVG-20010904/DTD/svg10.dtd">
<svg version="1.0" xmlns="http://www.w3.org/2000/svg"
 width="136.000000pt" height="125.000000pt" viewBox="0 0 136.000000 125.000000"
 preserveAspectRatio="xMidYMid meet">

<g transform="translate(0.000000,125.000000) scale(0.100000,-0.100000)"
fill="#000000" stroke="none">
<path d="M575 1184 c-61 -10 -142 -37 -198 -66 -69 -37 -174 -137 -212 -203
-74 -125 -101 -285 -72 -421 57 -264 293 -454 565 -454 90 0 177 22 264 66 60
30 94 59 195 163 67 69 123 128 123 131 0 3 -40 46 -90 95 -75 75 -90 86 -90
66 0 -15 23 -47 67 -92 l67 -70 -67 -67 -67 -67 -65 65 c-36 36 -63 70 -61 76
3 7 -3 19 -13 28 -16 15 -19 14 -41 -9 l-23 -24 68 -70 c39 -41 64 -74 60 -81
-13 -21 -116 -81 -172 -101 -285 -98 -592 90 -643 393 -23 132 24 289 117 397
117 138 336 198 513 142 62 -20 180 -85 180 -100 0 -4 -20 -26 -44 -50 l-43
-42 -47 29 c-62 40 -132 56 -220 50 -93 -7 -156 -37 -227 -109 -72 -73 -99
-139 -99 -244 0 -94 26 -166 82 -230 l42 -48 28 33 27 33 -31 35 c-45 52 -61
98 -62 177 -1 113 55 199 159 247 102 46 220 24 305 -58 l36 -34 104 96 c58
52 106 101 108 109 4 16 -91 100 -156 138 -92 54 -262 87 -367 71z"/>
<path d="M957 622 l-98 -99 96 -96 c53 -54 99 -97 101 -97 2 0 4 12 4 27 0 20
-17 45 -67 95 l-68 68 68 67 67 68 64 -64 c45 -45 62 -68 59 -82 -7 -23 22
-36 42 -19 28 23 15 45 -78 138 l-92 92 -98 -98z"/>
</g>
</svg>
